<?xml version="1.0" encoding="utf-8"?>
<!-- Generator: Adobe Illustrator 21.0.2, SVG Export Plug-In . SVG Version: 6.00 Build 0)  -->
<svg version="1.1" id="Capa_1" xmlns="http://www.w3.org/2000/svg" xmlns:xlink="http://www.w3.org/1999/xlink" x="0px" y="0px"
	 viewBox="0 0 25 25" style="enable-background:new 0 0 25 25;" xml:space="preserve">
<style type="text/css">
	.st0{fill:#2F2F2F;}
</style>
<g id="Search">
	<path class="st0" d="M23.8,21l-5.2-5.2c0,0-0.1,0-0.1-0.1c1-1.5,1.6-3.4,1.6-5.4c0-5.4-4.4-9.8-9.8-9.8S0.6,5,0.6,10.4
		c0,5.4,4.4,9.8,9.8,9.8c2,0,3.8-0.6,5.4-1.6c0,0,0,0.1,0.1,0.1l5.2,5.2c0.8,0.8,2,0.8,2.8,0C24.6,23,24.6,21.8,23.8,21z M10.4,16.8
		c-3.5,0-6.4-2.9-6.4-6.4C4,6.9,6.9,4,10.4,4c3.5,0,6.4,2.9,6.4,6.4S13.9,16.8,10.4,16.8z"/>
</g>
</svg>
